<svg xmlns="http://www.w3.org/2000/svg" viewBox="0 0 512 512">
    <!-- Black Square Background -->
    <rect width="512" height="512" fill="white"/>
    <!-- Original Path with White Fill and Transformations for Resizing and Centering -->
    <g transform="translate(64, 64) scale(0.75, 0.75)">
        <path fill="black" d="M499.1 6.3c8.1 6 12.9 15.6 12.9 25.7v72V368c0 44.2-43 80-96 80s-96-35.8-96-80s43-80 96-80c11.2 0 22 1.6 32 4.6V147L192 223.8V432c0 44.2-43 80-96 80s-96-35.8-96-80s43-80 96-80c11.2 0 22 1.6 32 4.6V200 128c0-14.1 9.3-26.6 22.8-30.7l320-96c9.7-2.9 20.2-128.3 5z"/>
    </g>
</svg>
